HIERARCHY
ROOT Hips
{
   OFFSET 0.00000 0.00000 0.00000
   CHANNELS 6 Xposition Yposition Zposition Zrotation Xrotation Yrotation
   JOINT Spine
   {
      OFFSET 0.000000 11.890501 0.000000
      CHANNELS 3 Zrotation Xrotation Yrotation
      JOINT Spine1
      {
         OFFSET -0.000000 25.657401 0.127660
         CHANNELS 3 Zrotation Xrotation Yrotation
         JOINT HEad
         {
            OFFSET 0.000000 8.734161 0.011340
            CHANNELS 3 Zrotation Xrotation Yrotation
            End Site
            {
               OFFSET -0.290000 12.774200 2.513950
            }
         }
         JOINT LeftShoulder1
         {
            OFFSET 8.990000 -0.362250 -0.220000
            CHANNELS 3 Zrotation Xrotation Yrotation
            JOINT LeftArm
            {
               OFFSET 10.282700 -0.003380 0.322120
               CHANNELS 3 Zrotation Xrotation Yrotation
               JOINT LeftForeArm
               {
                  OFFSET 32.766900 0.099140 -1.424340
                  CHANNELS 3 Zrotation Xrotation Yrotation
                  JOINT LeftHand
                  {
                     OFFSET 27.564301 0.085360 1.022160
                     CHANNELS 3 Zrotation Xrotation Yrotation
                     End Site
                     {
                        OFFSET 16.744301 -0.600000 1.502910
                     }
                  }
               }
            }
         }
         JOINT RightShoulder
         {
            OFFSET -8.990000 -0.362250 -0.220000
            CHANNELS 3 Zrotation Xrotation Yrotation
            JOINT RightArm
            {
               OFFSET -10.282700 -0.003380 0.322120
               CHANNELS 3 Zrotation Xrotation Yrotation
               JOINT RightForeArm
               {
                  OFFSET -32.897098 0.099140 -1.424340
                  CHANNELS 3 Zrotation Xrotation Yrotation
                  JOINT RightHand
                  {
                     OFFSET -27.492101 0.085360 1.022160
                     CHANNELS 3 Zrotation Xrotation Yrotation
                     End Site
                     {
                        OFFSET -16.631201 -0.600000 1.502910
                     }
                  }
               }
            }
         }
      }
   }
   JOINT LeftUpLeg
   {
      OFFSET 8.945800 -8.667070 0.101650
      CHANNELS 3 Zrotation Xrotation Yrotation
      JOINT LeftLeg
      {
         OFFSET 0.000000 -44.422697 1.372700
         CHANNELS 3 Zrotation Xrotation Yrotation
         JOINT LeftFoot
         {
            OFFSET -0.253550 -42.092399 -1.460590
            CHANNELS 3 Zrotation Xrotation Yrotation
            JOINT LeftToes
            {
               OFFSET -0.040000 -4.415090 8.499099
               CHANNELS 3 Zrotation Xrotation Yrotation
               End Site
               {
                  OFFSET 0.080000 -0.047450 9.779790
               }
            }
         }
      }
   }
   JOINT RightUpLeg
   {
      OFFSET -8.945800 -8.667070 0.101650
      CHANNELS 3 Zrotation Xrotation Yrotation
      JOINT RightLeg
      {
         OFFSET 0.000000 -44.422697 1.372700
         CHANNELS 3 Zrotation Xrotation Yrotation
         JOINT RightFoot
         {
            OFFSET 0.253550 -42.092399 -1.460590
            CHANNELS 3 Zrotation Xrotation Yrotation
            JOINT RightToes
            {
               OFFSET 0.040000 -4.415090 8.499099
               CHANNELS 3 Zrotation Xrotation Yrotation
               End Site
               {
                  OFFSET -0.080000 -0.137450 9.779790
               }
            }
         }
      }
   }
}
MOTION
Frames: 15
Frame Time: 0.016670
32.939550 94.693297 -16.183332 24.894610 34.100385 163.834231 20.561313 52.738657 -9.137461 -1.401750 5.909632 -14.917811 -13.603862 15.539652 20.238650 16.677299 18.100228 -10.341650 -131.316274 -61.100878 -94.434086 -24.511971 38.936825 -100.580328 9.524158 14.502655 -21.028675 -18.262001 47.667627 16.362345 142.888117 14.525367 109.792531 -2.851247 59.690485 108.615867 29.035322 11.551962 12.170967 32.697403 24.175593 -31.057966 -21.115065 -2.001424 81.769659 -54.407504 55.221048 9.789334 50.186782 -29.512178 -49.451106 -9.372230 47.675950 -24.112113 24.483622 16.744772 13.902799 -47.086180 -2.509129 30.130495 18.760791 -30.338143 -54.663944
32.874598 95.004509 -16.405488 26.071882 34.285934 163.993689 22.766626 51.813508 -8.881743 -1.174506 6.630580 -15.871408 -12.649276 15.204508 18.704917 18.361142 17.317774 -12.451255 -131.297054 -61.155137 -93.581200 -23.584551 37.768798 -101.255157 8.558089 14.628684 -20.789323 -18.297481 48.607605 15.866249 144.076379 15.628294 109.811738 -3.107226 59.896538 109.754822 29.534605 11.668039 11.402834 34.316011 24.370993 -28.752839 -21.010980 -0.986758 79.236369 -55.682263 55.634469 10.516233 51.498653 -29.460785 -49.877405 -8.341520 47.345608 -22.015885 25.360614 16.610996 12.061355 -47.429817 -2.931369 30.330261 18.113411 -30.435815 -54.263520
32.814154 95.415076 -16.575187 26.731303 33.790315 163.976190 24.233134 50.653175 -8.331415 -1.389574 7.032897 -16.389720 -11.742964 14.810290 17.346963 19.560596 16.824207 -14.067757 -131.338650 -61.377050 -92.863880 -22.777976 36.841388 -102.159898 7.601285 14.840044 -20.619069 -18.221618 49.114022 15.606625 145.215313 16.626605 110.219890 -3.406279 60.112085 110.549911 29.755285 11.847819 10.840445 34.877780 23.824572 -26.692569 -20.393927 -0.131377 76.874004 -54.188498 55.579486 10.673691 49.588830 -29.536060 -50.142679 -7.976990 46.673678 -19.966058 25.786590 15.898380 10.802536 -47.889161 -2.859820 31.098104 17.409893 -30.400236 -53.068193
32.724211 96.009348 -16.734358 27.066247 33.379230 164.183732 25.383546 49.168220 -7.558759 -1.825964 7.555933 -16.517744 -10.857883 14.388775 16.140731 20.426278 16.714006 -15.226802 -130.982483 -61.806170 -92.601294 -21.900619 36.460373 -103.110571 6.525334 14.990923 -20.568910 -18.207638 49.503794 15.381649 146.141992 17.104841 110.869919 -3.734645 60.560460 111.136255 29.927748 11.851575 10.697756 34.393421 23.560802 -24.806692 -18.675651 0.969236 74.784090 -53.217726 55.090673 10.459712 47.785926 -29.247488 -50.123900 -7.226441 45.761400 -18.338119 25.912688 15.423569 9.341549 -47.992953 -2.329115 31.600553 17.050662 -30.048458 -52.085250
32.632513 96.765030 -16.879302 27.166505 32.406854 164.484206 26.003130 47.487515 -6.979299 -2.206654 7.910109 -16.687361 -10.027108 14.112492 15.071859 20.743879 16.460828 -15.961329 -130.979573 -61.788179 -92.036396 -20.738389 35.679337 -103.582346 5.637506 15.208222 -20.162175 -18.196010 49.898398 15.223752 146.787350 17.422177 111.629292 -3.817923 61.288435 111.875787 30.052084 11.871984 11.099064 33.580598 22.493065 -23.242340 -16.930427 2.267718 72.932582 -52.370943 54.401572 10.273723 46.213934 -28.389413 -49.651101 -6.470032 44.452514 -16.905903 25.879923 14.993512 8.019767 -47.808507 -1.618375 32.090326 16.909132 -29.356396 -51.115298
32.463266 97.618950 -17.028914 27.012509 30.840240 165.402197 25.852893 46.065845 -6.332419 -2.290992 8.035392 -16.656823 -9.230755 13.869477 14.127079 20.746903 16.198878 -16.398106 -130.614158 -61.521863 -91.833580 -19.795785 35.169242 -104.441502 4.682409 15.403436 -20.163188 -17.578393 50.383300 15.568595 147.689481 18.008086 112.155975 -3.809320 61.739234 112.293528 30.075423 11.744713 11.897959 32.901236 21.093246 -21.781815 -15.233653 2.751907 71.223621 -51.510777 53.542970 10.130657 44.791838 -27.216940 -48.994873 -5.329552 42.421813 -15.598750 25.697984 14.777620 6.780094 -47.410064 -0.726019 32.499044 16.946765 -28.314363 -50.240344
32.346489 98.581894 -17.156923 26.229586 29.380533 165.904025 25.941492 44.141108 -5.748396 -2.742230 8.275467 -16.564242 -8.508680 13.678575 13.300983 20.476424 16.220075 -16.674228 -130.159145 -61.050300 -91.421187 -19.078084 35.202710 -105.637147 3.520474 15.682948 -20.212582 -17.018931 50.689351 15.983756 148.515961 18.551047 112.750133 -3.650911 62.189405 112.512101 29.890721 11.543570 13.210446 31.981172 19.461466 -20.901683 -13.975892 2.884649 69.319494 -50.297636 53.137516 10.252123 43.741419 -25.544100 -48.386641 -4.798524 40.012925 -14.442802 25.060195 15.073440 5.376576 -46.923311 0.327477 32.523752 17.185982 -27.087429 -49.676068
32.221198 99.489134 -17.222683 25.411630 27.973788 166.272254 26.109930 41.833478 -5.186932 -3.365892 8.477066 -16.371402 -7.844212 13.573819 12.581272 20.000971 16.439657 -16.718999 -129.702547 -60.565118 -90.901205 -18.041695 35.270981 -106.300877 2.261189 15.962676 -20.112114 -16.768442 50.932891 16.424575 148.894886 19.010787 113.307401 -3.663783 63.021076 112.352596 29.611728 11.212604 15.004532 30.871420 17.932800 -20.255600 -13.000043 3.231147 67.702952 -49.170409 52.516126 10.373640 42.730459 -23.595273 -47.374301 -4.390488 37.727875 -13.441490 24.326648 15.514942 4.015082 -46.317019 1.313030 32.353858 17.581607 -25.668063 -49.291713
32.028172 100.321501 -17.236880 24.964546 26.719178 166.730956 25.972996 39.978911 -4.703653 -3.706011 8.678670 -16.135740 -7.218031 13.424658 11.960011 19.377773 16.343946 -16.466317 -129.202331 -59.694310 -90.444006 -17.045027 35.023537 -106.854655 1.442170 16.159367 -19.573224 -16.636533 51.360738 16.617695 149.216684 19.263990 113.935813 -3.838511 63.848185 112.568109 29.083366 10.948001 15.882744 30.055049 16.586869 -19.797481 -12.246912 3.672136 66.283564 -48.261389 51.829152 10.364100 41.730134 -21.493543 -46.010316 -3.607640 35.654769 -12.649936 23.991999 16.025827 2.733352 -45.459649 2.144285 32.047774 18.166123 -24.107868 -49.169962
31.795737 100.963095 -17.125314 24.509949 25.218908 167.086822 25.221076 38.502179 -3.941387 -3.818739 8.899695 -15.536420 -6.562181 13.132698 11.418547 18.337717 15.978748 -15.954393 -128.928304 -58.545902 -89.894073 -15.700754 34.158121 -106.755898 1.152041 16.216549 -18.469204 -16.532389 52.215512 17.051125 149.171441 19.861775 114.288572 -4.065224 65.002528 113.423214 28.341853 10.691494 16.018044 29.238329 14.930059 -19.405312 -11.425118 4.005906 65.105336 -47.607245 50.976465 10.269052 40.287642 -19.954756 -44.419835 -3.011248 33.687681 -11.679597 23.352207 15.985505 2.002852 -44.824120 2.844876 32.097480 18.428696 -22.769680 -48.636654
31.522748 101.390313 -16.903349 24.174278 23.505628 167.606777 24.173773 37.323377 -3.247299 -3.612193 8.825316 -14.924170 -5.967274 12.760533 10.967820 17.431944 16.028948 -15.265000 -127.850049 -57.709382 -89.984580 -14.572180 33.949944 -106.928783 1.126188 16.173319 -17.508054 -16.194457 52.654133 17.464331 149.384734 20.455662 114.874097 -4.590737 65.751335 113.627874 27.876770 10.554359 16.057078 28.298070 13.701957 -18.710830 -10.382842 3.867964 64.439304 -47.185204 49.752754 10.145666 38.380633 -19.043100 -42.492980 -2.368138 32.000126 -10.751217 22.837709 15.348977 1.674640 -44.333228 3.299429 32.380441 18.392079 -21.728075 -47.852141
31.372423 101.672343 -16.640652 24.120314 21.998665 167.784908 22.648690 37.105303 -2.803541 -3.338552 8.227163 -14.541778 -5.208296 12.446414 10.542984 16.389449 15.939583 -14.600339 -126.123883 -56.739536 -90.674525 -13.660795 33.864686 -107.321028 1.218656 16.102210 -16.415499 -15.679049 52.851150 17.841205 149.756925 20.987580 115.594531 -5.127016 66.250492 113.607117 27.608504 10.463571 16.102649 27.789403 12.585981 -18.064940 -9.650136 3.581692 63.939108 -46.597231 48.682450 10.223338 36.246103 -18.599990 -40.639298 -1.583336 30.451241 -9.963331 22.623315 14.831780 1.310840 -44.018237 3.887103 32.614621 18.201920 -20.941585 -47.177981
31.386973 101.797007 -16.290631 23.783748 20.988229 167.889164 21.302680 36.611440 -2.313267 -3.009377 8.101076 -14.099237 -4.528598 12.111078 10.196134 15.496478 16.320968 -13.679552 -124.616993 -56.572807 -91.078319 -13.414499 34.184291 -108.470425 1.251473 16.027053 -15.487695 -15.379383 53.227070 17.960247 149.601879 21.733488 116.027811 -5.358003 67.106595 114.409343 27.293651 10.376521 16.137488 28.079222 11.037057 -18.094269 -10.520856 3.829387 63.147223 -45.638433 48.007153 10.220366 34.465995 -17.856396 -39.497430 -1.547183 29.208215 -8.847329 22.394276 14.656433 1.172478 -43.557947 4.142504 32.940039 17.903227 -20.238240 -46.590141
31.677475 101.759613 -15.882592 23.012465 19.898177 167.187690 20.510664 36.073350 -1.838589 -3.369956 7.986474 -13.721871 -4.122386 11.825385 9.961129 14.607302 16.585608 -13.143363 -123.692991 -55.887032 -90.629521 -13.176078 34.197316 -109.406687 1.520711 15.909607 -14.355348 -15.251391 53.577302 18.203361 149.497992 22.596241 116.254423 -5.951366 67.842295 114.601190 27.149789 10.364584 15.996614 27.830840 9.759577 -18.371469 -10.943107 3.994827 62.430798 -44.532062 47.171452 10.041112 32.759237 -17.162414 -38.854457 -1.793688 28.027254 -8.090216 21.889127 13.770879 0.993993 -43.094474 4.164532 33.056951 17.470936 -19.224524 -46.154477
32.195656 101.543864 -15.417845 22.256159 19.362184 166.665276 19.603505 35.542539 -1.223434 -3.803390 8.283798 -13.222527 -3.815653 11.541777 9.800964 13.815117 17.077802 -12.390872 -123.290433 -55.779252 -89.922746 -13.151518 34.070814 -110.387291 1.910963 15.743618 -13.361668 -15.303140 54.213954 18.588196 149.158504 23.819294 116.037223 -6.240477 68.774548 115.485043 27.156147 10.422910 15.767519 27.586110 9.018091 -18.734732 -11.147270 4.121149 61.909627 -43.353550 46.180019 9.748828 31.081858 -16.553597 -38.522752 -1.888995 27.136652 -7.336569 21.240374 13.059760 0.786795 -42.662915 4.208686 33.099093 16.929167 -17.978296 -45.790531
